<?xml version="1.0" encoding="utf-8"?>
<!-- Generator: Adobe Illustrator 16.0.0, SVG Export Plug-In . SVG Version: 6.00 Build 0)  -->
<!DOCTYPE svg PUBLIC "-//W3C//DTD SVG 1.1//EN" "http://www.w3.org/Graphics/SVG/1.1/DTD/svg11.dtd">
<svg version="1.1" id="Ebene_1" xmlns="http://www.w3.org/2000/svg" xmlns:xlink="http://www.w3.org/1999/xlink" x="0px" y="0px"
	 width="178px" height="64px" viewBox="0 0 178 64" enable-background="new 0 0 178 64" xml:space="preserve">
<g>
	<path fill="#024CA3" d="M72.571,13.351c0.222,1.642,0.251,2.725,0.251,4.118V35.34h3.734V17.469c0-2.105-0.056-3.964-0.223-5.14
		L72.571,13.351z M80.292,19.483l-3.652,6.875l4.794,8.981h4.405l-5.603-9.229l4.544-6.627H80.292z"/>
	<path fill="#024CA3" d="M90.485,12.421l-3.819,0.96c0.139,1.426,0.195,2.694,0.195,4.77v11.831c0,2.26,0.056,2.756,0.334,3.561
		c0.446,1.334,1.728,2.17,3.316,2.17c0.809,0,1.59-0.155,2.23-0.436l-0.641-2.476c-0.195,0.062-0.279,0.062-0.418,0.062
		c-0.306,0-0.613-0.156-0.752-0.434c-0.223-0.435-0.25-0.805-0.25-3.529V16.542C90.68,14.312,90.624,13.288,90.485,12.421"/>
	<path fill="#024CA3" d="M97.417,12.547c-1.281,0-2.341,1.146-2.341,2.571c0,1.424,1.03,2.569,2.285,2.569
		c1.282,0,2.312-1.145,2.312-2.569C99.674,13.693,98.671,12.547,97.417,12.547 M95.494,19.763v15.579h3.735v-16.23L95.494,19.763z"
		/>
	<path fill="#024CA3" d="M102.592,20.134c0.334,1.052,0.503,2.353,0.503,3.716v11.49h3.733V24.128
		c0.864-0.868,1.84-1.424,2.593-1.424c0.976,0,1.254,0.526,1.254,2.322V35.34h3.68V23.756c0-0.99-0.084-1.671-0.28-2.26
		c-0.444-1.363-1.839-2.293-3.428-2.293c-0.835,0-1.811,0.249-2.564,0.682c-0.613,0.373-1.086,0.744-1.644,1.177
		c0-0.65-0.195-1.332-0.529-1.984L102.592,20.134z"/>
	<path fill="#024CA3" d="M123.244,22.239c1.421,0,2.257,0.867,2.257,2.354c0,1.456-0.809,2.261-2.286,2.261
		c-1.311,0-2.201-0.65-2.201-2.261C121.014,23.106,121.821,22.239,123.244,22.239 M130.546,18.585
		c-0.865,0.867-1.923,1.363-2.955,1.363c-0.474,0-0.976-0.125-1.756-0.341c-1.03-0.279-1.756-0.402-2.563-0.402
		c-3.651,0-6.021,2.106-6.021,5.357c0,2.354,1.004,3.81,3.066,4.398c-2.343,0.682-2.619,1.642-2.619,2.663
		c0,1.085,0.417,1.798,1.085,2.076c0.671,0.309,1.758,0.464,3.43,0.495l1.589,0.031c1.478,0.031,2.619,0.465,2.619,1.888
		c0,0.651-0.361,1.24-0.919,1.611c-0.585,0.402-1.394,0.526-2.341,0.526c-1.729,0-2.677-0.68-2.677-1.951
		c0-0.434,0.028-0.649,0.167-1.021h-3.456c-0.14,0.309-0.334,0.742-0.334,1.609c0,1.083,0.39,2.014,1.17,2.818
		c1.283,1.332,3.373,1.701,5.408,1.701c2.229,0,4.376-0.556,5.629-2.043c0.782-0.929,1.145-1.949,1.145-3.281
		c0-1.425-0.392-2.51-1.227-3.376c-1.004-1.022-2.147-1.394-4.32-1.425l-2.008-0.032c-0.391,0-0.612-0.154-0.612-0.37
		c0-0.434,0.528-0.806,1.477-1.302c0.279,0.031,0.391,0.031,0.558,0.031c3.038,0,5.269-1.982,5.269-4.707
		c0-1.054-0.28-1.857-0.837-2.601c0.224,0.03,0.613,0.092,0.977,0.092c1.03,0,1.812-0.34,2.619-1.178L130.546,18.585z"/>
	<path fill="#024CA3" d="M136.467,25.677v-0.062c0-2.198,0.809-3.438,2.229-3.438c0.752,0,1.282,0.31,1.646,0.929
		c0.332,0.589,0.444,1.208,0.444,2.386v0.185H136.467z M143.045,31.097c-1.143,1.052-2.341,1.579-3.624,1.579
		c-1.923,0-3.009-1.394-3.009-3.839v-0.125h8.25v-0.96c0-3.312-0.585-5.449-1.896-6.936c-0.92-1.052-2.481-1.672-4.126-1.672
		c-1.895,0-3.317,0.68-4.487,2.137c-1.254,1.549-1.784,3.438-1.784,6.287c0,4.987,2.648,8.209,6.745,8.209
		c2.008,0,3.735-0.714,5.38-2.201L143.045,31.097z"/>
	<path fill="#024CA3" d="M146.964,20.103c0.305,0.897,0.528,2.509,0.528,4.645v10.594h3.735V24.129
		c0.696-0.899,1.449-1.332,2.285-1.332c0.418,0,0.725,0.091,1.086,0.308l1.032-3.653c-0.585-0.28-0.836-0.341-1.394-0.341
		c-0.418,0-0.919,0.093-1.227,0.248c-0.695,0.341-1.588,1.208-2.118,2.013c-0.055-0.897-0.25-1.609-0.586-2.261L146.964,20.103z"/>
	<path fill="#BCBEE0" d="M135.869,13.604c7.154-5.896,14.207-9.355,19.436-9.468c-4.912,1.526-10.65,4.804-16.419,9.468H135.869z"/>
	<path fill="#BCBEE0" d="M137.366,55.319c-9.155,5.884-17.485,7.742-21.509,3.99c-3.046-2.84-3.047-8.315-0.603-14.97h-2.664
		c-1.588,4.936-2.016,9.508-1.181,13.264c0.34,1.986,1.171,3.594,2.499,4.708C118.485,66.15,127.684,62.959,137.366,55.319"/>
	<path fill="#024CA3" d="M141.803,62.373c5.032-3.351,10.063-7.713,14.711-12.925c15.619-17.513,20.862-37.994,11.712-45.747
		c-2.659-2.253-6.242-3.183-10.372-2.938c6.871-1.585,12.779-0.747,16.455,2.928c8.48,8.48,1.856,28.855-14.797,45.506
		C153.855,54.854,147.706,59.229,141.803,62.373"/>
	<path fill="#ED1C29" d="M4.098,25.677v-0.062c0-2.198,0.808-3.438,2.229-3.438c0.752,0,1.282,0.31,1.644,0.929
		c0.334,0.589,0.447,1.208,0.447,2.386v0.185H4.098z M10.676,31.097c-1.143,1.052-2.342,1.579-3.624,1.579
		c-1.922,0-3.01-1.394-3.01-3.839v-0.125h8.25v-0.96c0-3.312-0.585-5.449-1.895-6.936c-0.92-1.052-2.481-1.672-4.125-1.672
		c-1.896,0-3.316,0.68-4.488,2.137C0.53,22.829,0,24.717,0,27.566c0,4.987,2.648,8.209,6.746,8.209c2.006,0,3.735-0.714,5.379-2.201
		L10.676,31.097z"/>
	<path fill="#ED1C29" d="M18.551,12.421l-3.819,0.96c0.139,1.426,0.195,2.694,0.195,4.77v11.831c0,2.26,0.056,2.756,0.335,3.561
		c0.446,1.334,1.728,2.17,3.316,2.17c0.808,0,1.589-0.155,2.229-0.436l-0.641-2.476c-0.196,0.062-0.279,0.062-0.418,0.062
		c-0.307,0-0.613-0.156-0.753-0.434c-0.223-0.435-0.251-0.805-0.251-3.529V16.542C18.746,14.312,18.691,13.288,18.551,12.421"/>
	<path fill="#ED1C29" d="M22.725,20.103c0.306,0.897,0.529,2.509,0.529,4.645v10.594h3.735V24.129
		c0.697-0.899,1.449-1.332,2.285-1.332c0.418,0,0.725,0.091,1.088,0.308l1.031-3.653c-0.586-0.28-0.836-0.341-1.395-0.341
		c-0.417,0-0.919,0.093-1.226,0.248c-0.696,0.341-1.588,1.208-2.118,2.013c-0.056-0.897-0.251-1.609-0.585-2.261L22.725,20.103z"/>
	<path fill="#ED1C29" d="M35.255,12.547c-1.282,0-2.341,1.146-2.341,2.571c0,1.424,1.031,2.569,2.285,2.569
		c1.282,0,2.314-1.145,2.314-2.569C37.513,13.693,36.51,12.547,35.255,12.547 M33.332,19.763v15.579h3.734v-16.23L33.332,19.763z"/>
	<path fill="#ED1C29" d="M40.43,20.134c0.334,1.052,0.501,2.353,0.501,3.716v11.49h3.735V24.128
		c0.864-0.868,1.839-1.424,2.591-1.424c0.976,0,1.255,0.526,1.255,2.322V35.34h3.679V23.756c0-0.99-0.084-1.671-0.279-2.26
		c-0.445-1.363-1.839-2.293-3.427-2.293c-0.837,0-1.812,0.249-2.565,0.682c-0.613,0.373-1.086,0.744-1.644,1.177
		c0-0.65-0.195-1.332-0.529-1.984L40.43,20.134z"/>
	<path fill="#ED1C29" d="M61.242,22.239c1.421,0,2.257,0.867,2.257,2.354c0,1.456-0.808,2.261-2.285,2.261
		c-1.311,0-2.203-0.65-2.203-2.261C59.011,23.106,59.819,22.239,61.242,22.239 M68.544,18.585c-0.864,0.867-1.923,1.363-2.954,1.363
		c-0.474,0-0.976-0.125-1.757-0.341c-1.031-0.279-1.756-0.402-2.564-0.402c-3.651,0-6.02,2.106-6.02,5.357
		c0,2.354,1.003,3.81,3.065,4.398c-2.341,0.682-2.62,1.642-2.62,2.663c0,1.085,0.418,1.798,1.087,2.076
		c0.668,0.309,1.756,0.464,3.428,0.495l1.589,0.031c1.477,0.031,2.62,0.465,2.62,1.888c0,0.651-0.362,1.24-0.919,1.611
		c-0.585,0.402-1.394,0.526-2.341,0.526c-1.729,0-2.676-0.68-2.676-1.951c0-0.434,0.028-0.649,0.167-1.021h-3.456
		c-0.139,0.309-0.334,0.742-0.334,1.609c0,1.083,0.39,2.014,1.17,2.818c1.282,1.332,3.372,1.701,5.408,1.701
		c2.229,0,4.375-0.556,5.63-2.043c0.78-0.929,1.143-1.949,1.143-3.281c0-1.425-0.39-2.51-1.226-3.376
		c-1.003-1.022-2.147-1.394-4.32-1.425l-2.008-0.032c-0.39,0-0.613-0.154-0.613-0.37c0-0.434,0.531-0.806,1.479-1.302
		c0.278,0.031,0.39,0.031,0.557,0.031c3.039,0,5.269-1.982,5.269-4.707c0-1.054-0.279-1.857-0.836-2.601
		c0.223,0.03,0.614,0.092,0.976,0.092c1.031,0,1.812-0.34,2.62-1.178L68.544,18.585z"/>
</g>
</svg>
